<mxfile host="app.diagrams.net" modified="2021-07-17T00:25:24.362Z" agent="5.0 (Macintosh; Intel Mac OS X 10_15_7) AppleWebKit/605.1.15 (KHTML, like Gecko) Version/14.1.1 Safari/605.1.15" etag="silPb4R6tZELfc3LncwA" version="14.8.6" type="github">
  <diagram id="DVVB18AhAnTQATnbbfvU" name="Page-1">
    <mxGraphModel dx="705" dy="512" grid="1" gridSize="10" guides="1" tooltips="1" connect="1" arrows="1" fold="1" page="1" pageScale="1" pageWidth="850" pageHeight="1100" math="0" shadow="0">
      <root>
        <mxCell id="0" />
        <mxCell id="1" parent="0" />
        <mxCell id="tEPiHMCiXNBRy2mskgk1-3" value="Physicians" style="whiteSpace=wrap;html=1;align=center;fillColor=#FF9999;" vertex="1" parent="1">
          <mxGeometry x="40" y="190" width="100" height="40" as="geometry" />
        </mxCell>
        <mxCell id="tEPiHMCiXNBRy2mskgk1-8" value="" style="edgeStyle=orthogonalEdgeStyle;rounded=0;orthogonalLoop=1;jettySize=auto;html=1;" edge="1" parent="1" source="tEPiHMCiXNBRy2mskgk1-4" target="tEPiHMCiXNBRy2mskgk1-6">
          <mxGeometry relative="1" as="geometry" />
        </mxCell>
        <mxCell id="tEPiHMCiXNBRy2mskgk1-4" value="Patients" style="whiteSpace=wrap;html=1;align=center;fillColor=#FF9999;" vertex="1" parent="1">
          <mxGeometry x="335" y="190" width="100" height="40" as="geometry" />
        </mxCell>
        <mxCell id="tEPiHMCiXNBRy2mskgk1-10" value="" style="edgeStyle=orthogonalEdgeStyle;rounded=0;orthogonalLoop=1;jettySize=auto;html=1;" edge="1" parent="1" source="tEPiHMCiXNBRy2mskgk1-5" target="tEPiHMCiXNBRy2mskgk1-4">
          <mxGeometry relative="1" as="geometry" />
        </mxCell>
        <mxCell id="tEPiHMCiXNBRy2mskgk1-11" value="" style="edgeStyle=orthogonalEdgeStyle;rounded=0;orthogonalLoop=1;jettySize=auto;html=1;" edge="1" parent="1" source="tEPiHMCiXNBRy2mskgk1-5" target="tEPiHMCiXNBRy2mskgk1-3">
          <mxGeometry relative="1" as="geometry" />
        </mxCell>
        <mxCell id="tEPiHMCiXNBRy2mskgk1-5" value="Cares for" style="shape=rhombus;perimeter=rhombusPerimeter;whiteSpace=wrap;html=1;align=center;fillColor=#CCE5FF;" vertex="1" parent="1">
          <mxGeometry x="190" y="190" width="90" height="40" as="geometry" />
        </mxCell>
        <mxCell id="tEPiHMCiXNBRy2mskgk1-9" value="" style="edgeStyle=orthogonalEdgeStyle;rounded=0;orthogonalLoop=1;jettySize=auto;html=1;" edge="1" parent="1" source="tEPiHMCiXNBRy2mskgk1-6" target="tEPiHMCiXNBRy2mskgk1-7">
          <mxGeometry relative="1" as="geometry" />
        </mxCell>
        <mxCell id="tEPiHMCiXNBRy2mskgk1-6" value="Diagnoses" style="shape=associativeEntity;whiteSpace=wrap;html=1;align=center;fillColor=#CCFFCC;" vertex="1" parent="1">
          <mxGeometry x="320" y="290" width="130" height="40" as="geometry" />
        </mxCell>
        <mxCell id="tEPiHMCiXNBRy2mskgk1-7" value="Conditions" style="whiteSpace=wrap;html=1;align=center;fillColor=#FF9999;" vertex="1" parent="1">
          <mxGeometry x="335" y="380" width="100" height="40" as="geometry" />
        </mxCell>
        <mxCell id="tEPiHMCiXNBRy2mskgk1-12" value="1" style="text;html=1;align=center;verticalAlign=middle;resizable=0;points=[];autosize=1;strokeColor=none;" vertex="1" parent="1">
          <mxGeometry x="140" y="190" width="20" height="20" as="geometry" />
        </mxCell>
        <mxCell id="tEPiHMCiXNBRy2mskgk1-13" value="1" style="text;html=1;align=center;verticalAlign=middle;resizable=0;points=[];autosize=1;strokeColor=none;" vertex="1" parent="1">
          <mxGeometry x="315" y="190" width="20" height="20" as="geometry" />
        </mxCell>
        <mxCell id="tEPiHMCiXNBRy2mskgk1-14" value="N" style="text;html=1;align=center;verticalAlign=middle;resizable=0;points=[];autosize=1;strokeColor=none;" vertex="1" parent="1">
          <mxGeometry x="390" y="230" width="20" height="20" as="geometry" />
        </mxCell>
        <mxCell id="tEPiHMCiXNBRy2mskgk1-15" value="N" style="text;html=1;align=center;verticalAlign=middle;resizable=0;points=[];autosize=1;strokeColor=none;" vertex="1" parent="1">
          <mxGeometry x="390" y="360" width="20" height="20" as="geometry" />
        </mxCell>
      </root>
    </mxGraphModel>
  </diagram>
</mxfile>
